# xmcd
#
# Track frame offsets: 
#        182
#        14250
#        60875
#        132200
#        201850
#        262875
#
# Disc length: 4210 seconds
#
# Revision: 0
# Processed by: cddbd v1.4PL0 Copyright (c) Steve Scherf et al.
# Submitted via: ExactAudioCopy v0.90b4
#
DISCID=45107006
DTITLE=Bill Dixon - Vade Mecim 11
DYEAR=1993
DGENRE=Blues
TTITLE0=Valentina de sera
TTITLE1=Tableau
TTITLE2=Ebonite
TTITLE3=Reflections
TTITLE4=Incunabula
TTITLE5=Octette #1
EXTD=
EXTT0=
EXTT1=
EXTT2=
EXTT3=
EXTT4=
EXTT5=
PLAYORDER=
